<?xml version="1.0" encoding="UTF-8" standalone="no"?>
<!-- Created with Inkscape (http://www.inkscape.org/) -->

<svg
   xmlns:dc="http://purl.org/dc/elements/1.1/"
   xmlns:cc="http://creativecommons.org/ns#"
   xmlns:rdf="http://www.w3.org/1999/02/22-rdf-syntax-ns#"
   xmlns:svg="http://www.w3.org/2000/svg"
   xmlns="http://www.w3.org/2000/svg"
   xmlns:xlink="http://www.w3.org/1999/xlink"
   version="1.1"
   width="626.49274"
   height="441.55084"
   id="svg2">
  <defs
     id="defs4">
    <linearGradient
       id="linearGradient4324">
      <stop
         id="stop4326"
         style="stop-color:#1e4760;stop-opacity:1"
         offset="0" />
      <stop
         id="stop4334"
         style="stop-color:#5275d7;stop-opacity:0.49803922"
         offset="0.92307693" />
      <stop
         id="stop4328"
         style="stop-color:#93baf0;stop-opacity:0.78151262"
         offset="1" />
    </linearGradient>
    <filter
       x="0"
       y="0"
       width="1"
       height="1"
       color-interpolation-filters="sRGB"
       id="filter4309">
      <feConvolveMatrix
         id="feConvolveMatrix4311"
         result="result1"
         order="3 3"
         kernelMatrix="0 -0.3 0 -0.3 2.2 -0.3 0 -0.3 0"
         divisor="1"
         in="SourceGraphic"
         targetX="1"
         targetY="1" />
      <feBlend
         in2="SourceGraphic"
         mode="normal"
         result="result2"
         id="feBlend4313" />
    </filter>
    <radialGradient
       cx="361.42401"
       cy="407.46616"
       r="313.23657"
       fx="361.42401"
       fy="407.46616"
       id="radialGradient4332"
       xlink:href="#linearGradient4324"
       gradientUnits="userSpaceOnUse"
       gradientTransform="matrix(1,0,0,0.70485434,0,120.26187)" />
  </defs>
  <metadata
     id="metadata7">
    <rdf:RDF>
      <cc:Work
         rdf:about="">
        <dc:format>image/svg+xml</dc:format>
        <dc:type
           rdf:resource="http://purl.org/dc/dcmitype/StillImage" />
        <dc:title></dc:title>
      </cc:Work>
    </rdf:RDF>
  </metadata>
  <g
     transform="translate(-48.195193,-186.68658)"
     id="layer1">
    <path
       d="m 249.05635,625.89949 c 0,-1.0908 2.64774,-7.9533 5.88386,-15.25 5.25601,-11.85105 18.0174,-40.81526 33.82279,-76.76671 3.02247,-6.875 6.79994,-15.36302 8.39437,-18.86227 1.59444,-3.49925 2.89898,-6.53675 2.89898,-6.75 0,-0.21325 -46.9125,-0.39722 -104.25,-0.40882 C 79.037171,507.83809 86.180071,508.30425 73.000009,499.84663 30.551198,472.6073 47.338157,386.3259 95.168415,385.90573 c 2.513649,-0.0221 2.63693,-0.2973 3.27188,-7.30422 4.685645,-51.70786 52.484675,-90.09623 92.233305,-74.07441 5.11724,2.06265 5.11724,2.06265 5.67168,-4.55065 5.9893,-71.4403 77.05821,-110.79638 129.71107,-71.83055 7.5,5.55039 7.5,5.55039 16.5,-3.74432 75.09008,-77.5489 193.65438,-27.12658 208.05687,88.4812 0.7995,6.41759 1.39286,6.96426 7.58126,6.98469 19.24121,0.0635 41.87268,13.85341 58.68616,35.75886 3.88449,5.06092 12.87064,23.31418 13.76431,27.95899 0.55527,2.88599 1.23456,3.40833 6.87235,5.28446 48.95416,16.2909 48.8226,99.28367 -0.18481,116.57938 -6.77614,2.39144 -6.77614,2.39144 -99.06663,2.41253 -89.23709,0.0204 -92.38014,0.0843 -95,1.93264 -3.14012,2.21534 -22.56292,14.20299 -61.20951,37.77818 -11.25383,6.86506 -23.03558,14.09884 -37.5,23.02431 -7.15,4.412 -28.975,17.8117 -48.5,29.77711 -19.525,11.96541 -37.5644,23.04984 -40.08755,24.63207 -5.40797,3.39126 -6.91245,3.58573 -6.91245,0.89349 z m 17.5,-11.65019 c 4.4,-2.61365 8.225,-5.00714 8.5,-5.31888 0.275,-0.31173 2.22476,-1.46248 4.3328,-2.55721 2.10804,-1.09474 4.09007,-2.39746 4.40451,-2.89494 8.35358,-5.03287 16.28572,-10.29768 23.66337,-14.33167 2.5009,-1.52008 8.27133,-4.98587 12.82319,-7.70175 4.55185,-2.71589 9.6261,-5.86702 11.2761,-7.00251 4.08207,-2.8092 6.3086,-4.16535 10.96932,-6.68126 4.00284,-2.16078 5.21191,-2.92923 13.69416,-8.70357 2.56491,-1.74608 4.95744,-3.17469 5.31672,-3.17469 0.35928,0 2.12819,-1.125 3.93091,-2.5 1.80272,-1.375 3.6852,-2.50091 4.18328,-2.50201 0.49809,-10e-4 3.83061,-1.92386 7.40561,-4.27278 3.575,-2.34892 10.20888,-6.46005 14.74196,-9.13584 4.53308,-2.67579 8.75068,-5.47804 9.37245,-6.22722 0.62179,-0.74922 1.75041,-1.36219 2.50806,-1.36219 0.75766,0 1.37756,-0.35134 1.37756,-0.78076 0,-0.42942 1.2375,-1.31937 2.75,-1.97767 1.5125,-0.65829 4.36328,-2.21945 6.33508,-3.46923 1.97179,-1.24979 7.95868,-4.97234 13.30419,-8.27234 5.34552,-3.3 11.15724,-6.9 12.91493,-8 3.12117,-1.95329 5.37938,-2.01168 96.6958,-2.5 102.77335,-0.54959 99.13854,-0.32528 107.68328,-6.64546 1.7508,-1.295 3.51166,-2.35454 3.91302,-2.35454 4.38378,0 20.10995,-24.11639 20.58061,-31.56077 0.1022,-1.61658 0.58244,-3.46936 1.0672,-4.1173 4.52224,-6.0445 -1.36282,-39.44064 -8.14545,-46.22327 -1.15426,-1.15426 -2.09866,-2.71528 -2.09866,-3.46893 0,-2.19148 -10.83722,-12.33296 -15.54252,-14.54471 -2.36502,-1.11169 -4.57095,-2.45961 -4.90207,-2.99536 -0.33111,-0.53576 -2.62945,-1.27814 -5.10741,-1.64973 -4.15961,-0.62377 -8.448,-5.64095 -8.448,-9.8837 0,-1.3857 -8.46456,-19.16365 -9.72398,-20.42307 -0.77758,-0.77758 -2.17029,-2.58794 -3.0949,-4.02302 -6.10529,-9.47593 -23.82684,-25.06516 -26.56786,-23.37112 -0.50725,0.3135 -0.65472,0.13709 -0.32772,-0.39202 1.67237,-2.70594 -16.45228,-8.75788 -30.28554,-10.11254 -7.5,-0.73446 -7.5,-0.73446 -8.53714,-9.23446 -0.57043,-4.675 -1.32244,-9.175 -1.67114,-10 -0.72533,-1.71609 -3.57395,-14.01865 -4.28361,-18.5 -0.26129,-1.65 -1.15051,-2.90462 -1.97605,-4.09888 -4.85663,-11.69486 -9.58839,-25.83438 -17.65241,-36.54502 -1.58381,-2.00415 -2.87965,-3.92055 -2.87965,-4.25866 0,-3.04202 -24.61671,-26.64602 -31.79675,-30.48866 -1.12601,-0.60263 -2.64489,-1.68872 -3.37527,-2.41354 -0.73039,-0.72483 -3.57798,-2.41486 -6.32798,-3.75563 -2.75,-1.34076 -5.225,-2.70932 -5.5,-3.04123 -0.275,-0.33191 -2.975,-1.41118 -6,-2.39838 -3.025,-0.9872 -5.725,-2.09234 -6,-2.45586 -0.55705,-0.73636 -8.26725,-2.5147 -17.71399,-4.0857 -13.37113,-2.22362 -39.06353,-0.38697 -47.53069,3.39778 -1.79042,0.8003 -5.50532,2.26086 -8.25532,3.24567 -6.20156,2.22087 -21.8175,10.83542 -25.59505,14.11954 -14.14581,12.29808 -17.72146,15.60521 -19.40495,17.94773 -6.13399,8.53523 -7.65005,8.78398 -15.20689,2.49511 -5.17026,-4.30273 -9.85491,-7.47814 -11.29311,-7.65483 -0.275,-0.0338 -1.625,-0.78295 -3,-1.66482 -1.375,-0.88187 -4.75,-2.38027 -7.5,-3.32979 -2.75,-0.94951 -6.0796,-2.24128 -7.39911,-2.87061 -10.40103,-4.77045 -29.52162,0.3422 -35.84951,1.73686 -13.43338,6.84528 -42.25172,29.09608 -44.98587,35.22975 -2.68489,6.02314 -9.59138,16.33584 -10.26551,19.11981 -0.1314,0.54264 -0.86098,2.98483 -1.91328,5.39224 -2.03787,4.66215 -3.86998,15.47382 -4.31534,25.46579 -0.31009,6.95715 1.11847,6.64951 -12.96722,2.79248 -16.15817,-4.42453 -32.52036,-2.02747 -46.93537,6.87602 -3.09963,0.12507 -10.00058,7.6076 -11.75673,9.31209 -0.70032,0.67972 -5.795,4.96387 -10.79087,11.904 -8.16033,11.33611 -13.85898,26.8107 -15.3987,41.81491 -1.19319,11.62733 -1.7815,12.71183 -6.895714,12.71183 -11.725045,0 -36.026779,17.00018 -36.026779,25.20239 0,0.38984 -1.073214,2.29026 -2.384921,4.22317 -7.184069,10.58632 -7.880879,45.60759 -1.065959,53.57444 0.705713,0.825 2.044723,3.4125 2.975577,5.75 0.930854,2.3375 2.696028,3.58917 3.1429,4.25 5.762145,8.52101 14.234434,15.52063 24.077796,19.37346 5.356882,1.96217 92.93541,3.03176 215.53599,2.63234 2.32846,-0.008 3.25909,2.565 1.9215,5.31166 -1.10482,2.26869 -4.20767,9.18871 -10.61892,23.68254 -2.06795,4.675 -4.84533,10.83417 -6.17194,13.68705 -1.32661,2.85288 -2.41202,5.43051 -2.41202,5.72807 0,0.29756 -1.575,3.90508 -3.5,8.01671 -3.44983,8.08556 -7.06651,16.58373 -10.49856,24.06817 -3.38478,7.22904 -13.85758,30.93892 -14.96994,33.89118 -1.07948,2.86499 -1.06871,2.87685 1.18958,1.3093 1.2534,-0.87003 5.87892,-3.72031 10.27892,-6.33396 z"
       id="path4315"
       style="fill:url(#radialGradient4332);fill-opacity:1;stroke:#a9cfe5;stroke-opacity:1" />
  </g>
</svg>
