<?xml version="1.0" encoding="UTF-8" standalone="no"?>
<svg
   xmlns:dc="http://purl.org/dc/elements/1.1/"
   xmlns:cc="http://creativecommons.org/ns#"
   xmlns:rdf="http://www.w3.org/1999/02/22-rdf-syntax-ns#"
   xmlns:svg="http://www.w3.org/2000/svg"
   xmlns="http://www.w3.org/2000/svg"
   id="svg8"
   version="1.1"
   viewBox="0 0 139.33096 145.15692"
   height="145.15692mm"
   width="139.33096mm">
  <defs
     id="defs2" />
  <metadata
     id="metadata5">
    <rdf:RDF>
      <cc:Work
         rdf:about="">
        <dc:format>image/svg+xml</dc:format>
        <dc:type
           rdf:resource="http://purl.org/dc/dcmitype/StillImage" />
        <dc:title></dc:title>
      </cc:Work>
    </rdf:RDF>
  </metadata>
  <g
     transform="translate(-42.971422,-83.448287)"
     id="layer1">
    <path
       id="path1066"
       d="m 43.133282,224.04115 c 0.38775,-10.9337 2.91518,-20.75555 7.98293,-31.0224 3.53892,-7.16957 8.09675,-13.58221 13.56932,-19.09138 4.21147,-4.23964 10.68333,-9.32668 11.27427,-8.86185 0.1633,0.12845 1.30893,1.04521 2.54586,2.03724 7.23652,5.80378 15.33386,9.45617 25.003118,11.27791 2.70372,0.50939 4.05866,0.59818 9.12813,0.59818 5.06947,0 6.42441,-0.0888 9.12812,-0.59818 9.89107,-1.86353 18.22266,-5.69447 25.66458,-11.8008 1.16417,-0.95524 2.17849,-1.73734 2.25404,-1.73802 0.34179,-0.003 5.97123,4.41725 8.34476,6.5524 6.26978,5.64008 11.78873,12.94229 15.84367,20.96304 5.21966,10.32457 7.87472,20.49744 8.26932,31.68386 l 0.16099,4.56406 H 112.63691 42.971422 Z M 106.4192,164.96807 c -4.58423,-0.73865 -7.506338,-1.67605 -11.906248,-3.81945 -4.22014,-2.05583 -7.32409,-4.29315 -10.84792,-7.81919 -3.34545,-3.34755 -5.39136,-6.10347 -7.40319,-9.97239 -2.84272,-5.46681 -4.28478,-10.90831 -4.5492,-17.16608 -0.68196,-16.13911 7.76332,-30.698138 22.15464,-38.192958 9.756918,-5.08127 21.229668,-5.94387 31.904668,-2.39879 13.74436,4.56438 23.99615,16.218518 27.11378,30.822658 0.86957,4.07343 0.88246,11.58339 0.0271,15.80297 -2.57779,12.7168 -10.50234,23.13525 -21.88741,28.77548 -6.28269,3.11248 -11.77416,4.39266 -18.61327,4.33914 -2.13197,-0.0167 -4.82881,-0.18381 -5.99298,-0.37139 z"
       style="fill:#000000;stroke-width:0.26458335" />
  </g>
</svg>
