<?xml version="1.0" encoding="UTF-8" standalone="no"?>
<svg
   xmlns:dc="http://purl.org/dc/elements/1.1/"
   xmlns:cc="http://creativecommons.org/ns#"
   xmlns:rdf="http://www.w3.org/1999/02/22-rdf-syntax-ns#"
   xmlns:svg="http://www.w3.org/2000/svg"
   xmlns="http://www.w3.org/2000/svg"
   id="svg8"
   version="1.1"
   viewBox="0 0 338.74094 170.04221"
   height="170.04221mm"
   width="338.74094mm">
  <defs
     id="defs2" />
  <metadata
     id="metadata5">
    <rdf:RDF>
      <cc:Work
         rdf:about="">
        <dc:format>image/svg+xml</dc:format>
        <dc:type
           rdf:resource="http://purl.org/dc/dcmitype/StillImage" />
        <dc:title></dc:title>
      </cc:Work>
    </rdf:RDF>
  </metadata>
  <g
     transform="translate(56.696418,-58.563004)"
     id="layer1">
    <path
       id="path1066"
       d="m 43.133282,224.04115 c 0.38775,-10.9337 2.91518,-20.75555 7.98293,-31.0224 3.53892,-7.16957 8.09675,-13.58221 13.56932,-19.09138 4.21147,-4.23964 10.68333,-9.32668 11.27427,-8.86185 0.1633,0.12845 1.30893,1.04521 2.54586,2.03724 7.23652,5.80378 15.33386,9.45617 25.003118,11.27791 2.70372,0.50939 4.05866,0.59818 9.12813,0.59818 5.06947,0 6.42441,-0.0888 9.12812,-0.59818 9.89107,-1.86353 18.22266,-5.69447 25.66458,-11.8008 1.16417,-0.95524 2.17849,-1.73734 2.25404,-1.73802 0.34179,-0.003 5.97123,4.41725 8.34476,6.5524 6.26978,5.64008 11.78873,12.94229 15.84367,20.96304 5.21966,10.32457 7.87472,20.49744 8.26932,31.68386 l 0.16099,4.56406 H 112.63691 42.971422 Z m -99.82906,-21.69514 c 10e-4,-2.24097 0.5108,-8.28587 0.94144,-11.1639 3.01833,-20.17166 13.87558,-38.34415 29.69814,-49.70771 l 2.14164,-1.5381 2.32834,1.88706 c 7.84569,6.35876 16.7638904,10.29344 27.0668804,11.94183 3.29737,0.52755 12.6217896,0.45369 16.0072896,-0.12679 9.89695,-1.69694 19.29742,-5.97339 26.54819,-12.07728 l 1.94193,-1.63477 1.40003,0.92957 c 2.77438,1.84208 6.68462,5.20591 9.9319,8.54403 3.78324,3.88907 5.49459,5.95637 8.18148,9.88321 1.82503,2.66724 1.88009,2.79264 1.39402,3.175 -0.27832,0.21895 -1.50538,1.16694 -2.7268,2.10664 -3.52869,2.71483 -10.63259,9.99397 -13.48045,13.813 -5.37557,7.20874 -8.84073,13.69774 -11.77442,22.04928 l -1.11531,3.175 -49.2424696,0.0668 -49.2424704,0.0668 z m 240.107628,1.05764 c -0.0642,-0.1819 -0.60891,-1.7449 -1.21041,-3.47332 -4.96251,-14.25993 -14.15427,-27.03826 -25.95126,-36.07729 l -2.29193,-1.75611 0.94164,-1.47243 c 4.65104,-7.27266 11.73374,-14.60667 19.15887,-19.83864 l 1.22914,-0.86609 1.94586,1.63937 c 7.20504,6.07019 16.62317,10.35369 26.55373,12.077 3.37335,0.5854 12.68409,0.66047 16.00566,0.12905 10.31161,-1.64977 19.26728,-5.60098 27.07908,-11.94718 l 2.3405,-1.90142 1.23137,0.86768 c 4.83452,3.40668 10.00358,8.13233 13.72002,12.54313 3.00742,3.56929 7.06443,9.70019 9.20631,13.91245 5.18184,10.19057 7.88093,20.59914 8.48596,32.72421 l 0.18812,3.77032 h -49.25793 c -39.16769,0 -49.28187,-0.0677 -49.37473,-0.33073 z M 106.4192,164.96807 c -4.58423,-0.73865 -7.506338,-1.67605 -11.906248,-3.81945 -4.22014,-2.05583 -7.32409,-4.29315 -10.84792,-7.81919 -3.34545,-3.34755 -5.39136,-6.10347 -7.40319,-9.97239 -2.84272,-5.46681 -4.28478,-10.90831 -4.5492,-17.16608 -0.68196,-16.13911 7.76332,-30.698138 22.15464,-38.192958 9.756918,-5.08127 21.229668,-5.94387 31.904668,-2.39879 13.74436,4.56438 23.99615,16.218518 27.11378,30.822658 0.86957,4.07343 0.88246,11.58339 0.0271,15.80297 -2.57779,12.7168 -10.50234,23.13525 -21.88741,28.77548 -6.28269,3.11248 -11.77416,4.39266 -18.61327,4.33914 -2.13197,-0.0167 -4.82881,-0.18381 -5.99298,-0.37139 z M 6.9358724,140.13088 c -18.0324504,-2.97443 -31.6031804,-16.53625 -34.4405004,-34.4179 -0.57321,-3.61254 -0.3572,-11.442678 0.40653,-14.736308 3.36681,-14.51952 13.32963,-25.64166 27.09493038,-30.24782 20.27208962,-6.78347 42.22434962,2.98253 50.71666962,22.56255 4.76839,10.99409 4.42208,23.811008 -0.93198,34.491558 -5.69325,11.3572 -15.80005,19.14485 -28.4866,21.94997 -3.16098,0.69892 -11.18608,0.92133 -14.3590496,0.39795 z m 199.2312376,0 c -19.1481,-3.15846 -33.03177,-17.97517 -34.82958,-37.1703 -0.69291,-7.398168 0.75657,-14.804398 4.28101,-21.874258 3.80585,-7.63434 10.33518,-14.17633 18.05877,-18.09378 9.86122,-5.00166 21.0395,-5.7936 31.66455,-2.24331 13.73847,4.59061 23.79237,15.90396 27.05828,30.44783 0.80272,3.57474 0.86368,12.752258 0.10776,16.228978 -1.91547,8.81028 -5.71783,15.69568 -11.98118,21.69583 -5.58598,5.35129 -12.28407,8.90487 -20.00056,10.61106 -3.16098,0.69892 -11.18608,0.92133 -14.35905,0.39795 z"
       style="fill:#000000;stroke-width:0.26458335" />
  </g>
</svg>
